HIERARCHY
ROOT Hips
{
  OFFSET 5.72205e-005 65.662 3.42586
  CHANNELS 6 Xposition Yposition Zposition Zrotation Xrotation Yrotation
  JOINT Chest
  {
    OFFSET 0 8.7983 -4.7612
    CHANNELS 6 Xposition Yposition Zposition Zrotation Xrotation Yrotation
    JOINT Chest2
    {
      OFFSET 0 8.0291 0.4195
      CHANNELS 6 Xposition Yposition Zposition Zrotation Xrotation Yrotation
      JOINT Chest3
      {
        OFFSET 0 9.9351 -2.2114
        CHANNELS 6 Xposition Yposition Zposition Zrotation Xrotation Yrotation
        JOINT Neck
        {
          OFFSET 0 22.3885 -0.4656
          CHANNELS 6 Xposition Yposition Zposition Zrotation Xrotation Yrotation
          JOINT Head
          {
            OFFSET -0.0001 12.643 3.4389
            CHANNELS 6 Xposition Yposition Zposition Zrotation Xrotation Yrotation
            End Site
            {
              OFFSET 0.0001 17.6655 0.5274
            }
          }
        }
        JOINT LeftCollar
        {
          OFFSET 2.2603 21.606 7.4023
          CHANNELS 6 Xposition Yposition Zposition Zrotation Xrotation Yrotation
          JOINT LeftShoulder
          {
            OFFSET 13.5163 -1.1332 -5.0146
            CHANNELS 6 Xposition Yposition Zposition Zrotation Xrotation Yrotation
            JOINT LeftElbow
            {
              OFFSET -0.0995 -28.05 -0.2431
              CHANNELS 6 Xposition Yposition Zposition Zrotation Xrotation Yrotation
              JOINT LeftWrist
              {
                OFFSET 0.0679 -23.3996 -0.1402
                CHANNELS 6 Xposition Yposition Zposition Zrotation Xrotation Yrotation
                JOINT LeftFinger1
                {
                  OFFSET 0.7932 -9.069 2.5189
                  CHANNELS 6 Xposition Yposition Zposition Zrotation Xrotation Yrotation
                  JOINT LeftFinger11
                  {
                    OFFSET -0.8272 -3.3923 0.5977
                    CHANNELS 6 Xposition Yposition Zposition Zrotation Xrotation Yrotation
                    JOINT LeftFinger12
                    {
                      OFFSET -0.5649 -2.3158 0.4082
                      CHANNELS 6 Xposition Yposition Zposition Zrotation Xrotation Yrotation
                      End Site
                      {
                        OFFSET -0.4919 -1.6479 0.2673
                      }
                    }
                  }
                }
                JOINT LeftFinger2
                {
                  OFFSET 0.9159 -9.2044 0.2193
                  CHANNELS 6 Xposition Yposition Zposition Zrotation Xrotation Yrotation
                  JOINT LeftFinger21
                  {
                    OFFSET 0.0117 -4.1944 -0.0248
                    CHANNELS 6 Xposition Yposition Zposition Zrotation Xrotation Yrotation
                    JOINT LeftFinger22
                    {
                      OFFSET 0.0071 -2.3249 -0.0142
                      CHANNELS 6 Xposition Yposition Zposition Zrotation Xrotation Yrotation
                      End Site
                      {
                        OFFSET -0.1475 -2.0882 0.0028
                      }
                    }
                  }
                }
                JOINT LeftFinger3
                {
                  OFFSET 0.6113 -8.7231 -2.0637
                  CHANNELS 6 Xposition Yposition Zposition Zrotation Xrotation Yrotation
                  JOINT LeftFinger31
                  {
                    OFFSET -0.1927 -3.8059 -0.2383
                    CHANNELS 6 Xposition Yposition Zposition Zrotation Xrotation Yrotation
                    JOINT LeftFinger32
                    {
                      OFFSET -0.1091 -2.1688 -0.1362
                      CHANNELS 6 Xposition Yposition Zposition Zrotation Xrotation Yrotation
                      End Site
                      {
                        OFFSET -0.2358 -1.9176 -0.0906
                      }
                    }
                  }
                }
                JOINT LeftFinger4
                {
                  OFFSET -0.6151 -8.0947 -3.5641
                  CHANNELS 6 Xposition Yposition Zposition Zrotation Xrotation Yrotation
                  JOINT LeftFinger41
                  {
                    OFFSET -0.4882 -2.341 -0.6462
                    CHANNELS 6 Xposition Yposition Zposition Zrotation Xrotation Yrotation
                    JOINT LeftFinger42
                    {
                      OFFSET -0.3575 -1.7167 -0.4742
                      CHANNELS 6 Xposition Yposition Zposition Zrotation Xrotation Yrotation
                      End Site
                      {
                        OFFSET -0.4187 -1.5237 -0.3496
                      }
                    }
                  }
                }
                JOINT LeftFinger0
                {
                  OFFSET -1.42 -1.8761 1.4223
                  CHANNELS 6 Xposition Yposition Zposition Zrotation Xrotation Yrotation
                  JOINT LeftFinger01
                  {
                    OFFSET -1.1471 -3.4929 2.6334
                    CHANNELS 6 Xposition Yposition Zposition Zrotation Xrotation Yrotation
                    JOINT LeftFinger02
                    {
                      OFFSET -0.823 -2.3 1.6571
                      CHANNELS 6 Xposition Yposition Zposition Zrotation Xrotation Yrotation
                      End Site
                      {
                        OFFSET -0.5822 -1.6914 1.1582
                      }
                    }
                  }
                }
              }
            }
          }
        }
        JOINT RightCollar
        {
          OFFSET -2.2603 21.606 7.4023
          CHANNELS 6 Xposition Yposition Zposition Zrotation Xrotation Yrotation
          JOINT RightShoulder
          {
            OFFSET -13.5187 -1.1334 -5.0155
            CHANNELS 6 Xposition Yposition Zposition Zrotation Xrotation Yrotation
            JOINT RightElbow
            {
              OFFSET 0.0994 -28.0499 -0.2431
              CHANNELS 6 Xposition Yposition Zposition Zrotation Xrotation Yrotation
              JOINT RightWrist
              {
                OFFSET -0.0679 -23.3996 -0.1402
                CHANNELS 6 Xposition Yposition Zposition Zrotation Xrotation Yrotation
                JOINT RightFinger1
                {
                  OFFSET -0.7932 -9.0691 2.5189
                  CHANNELS 6 Xposition Yposition Zposition Zrotation Xrotation Yrotation
                  JOINT RightFinger11
                  {
                    OFFSET 0.8272 -3.3923 0.5977
                    CHANNELS 6 Xposition Yposition Zposition Zrotation Xrotation Yrotation
                    JOINT RightFinger12
                    {
                      OFFSET 0.565 -2.3158 0.4082
                      CHANNELS 6 Xposition Yposition Zposition Zrotation Xrotation Yrotation
                      End Site
                      {
                        OFFSET 0.4919 -1.6479 0.2673
                      }
                    }
                  }
                }
                JOINT RightFinger2
                {
                  OFFSET -0.916 -9.2044 0.2193
                  CHANNELS 6 Xposition Yposition Zposition Zrotation Xrotation Yrotation
                  JOINT RightFinger21
                  {
                    OFFSET -0.0117 -4.1944 -0.0248
                    CHANNELS 6 Xposition Yposition Zposition Zrotation Xrotation Yrotation
                    JOINT RightFinger22
                    {
                      OFFSET -0.0071 -2.3249 -0.0142
                      CHANNELS 6 Xposition Yposition Zposition Zrotation Xrotation Yrotation
                      End Site
                      {
                        OFFSET 0.1475 -2.0882 0.0028
                      }
                    }
                  }
                }
                JOINT RightFinger3
                {
                  OFFSET -0.6113 -8.7231 -2.0637
                  CHANNELS 6 Xposition Yposition Zposition Zrotation Xrotation Yrotation
                  JOINT RightFinger31
                  {
                    OFFSET 0.1927 -3.8059 -0.2383
                    CHANNELS 6 Xposition Yposition Zposition Zrotation Xrotation Yrotation
                    JOINT RightFinger32
                    {
                      OFFSET 0.1091 -2.1688 -0.1362
                      CHANNELS 6 Xposition Yposition Zposition Zrotation Xrotation Yrotation
                      End Site
                      {
                        OFFSET 0.2358 -1.9176 -0.0906
                      }
                    }
                  }
                }
                JOINT RightFinger4
                {
                  OFFSET 0.6151 -8.0947 -3.564
                  CHANNELS 6 Xposition Yposition Zposition Zrotation Xrotation Yrotation
                  JOINT RightFinger41
                  {
                    OFFSET 0.4882 -2.341 -0.6462
                    CHANNELS 6 Xposition Yposition Zposition Zrotation Xrotation Yrotation
                    JOINT RightFinger42
                    {
                      OFFSET 0.3574 -1.7166 -0.4742
                      CHANNELS 6 Xposition Yposition Zposition Zrotation Xrotation Yrotation
                      End Site
                      {
                        OFFSET 0.4187 -1.5237 -0.3496
                      }
                    }
                  }
                }
                JOINT RightFinger0
                {
                  OFFSET 1.4199 -1.8761 1.4221
                  CHANNELS 6 Xposition Yposition Zposition Zrotation Xrotation Yrotation
                  JOINT RightFinger01
                  {
                    OFFSET 1.1472 -3.4929 2.6336
                    CHANNELS 6 Xposition Yposition Zposition Zrotation Xrotation Yrotation
                    JOINT RightFinger02
                    {
                      OFFSET 0.8229 -2.3 1.6571
                      CHANNELS 6 Xposition Yposition Zposition Zrotation Xrotation Yrotation
                      End Site
                      {
                        OFFSET 0.5822 -1.6914 1.1582
                      }
                    }
                  }
                }
              }
            }
          }
        }
      }
    }
  }
  JOINT RightHip
  {
    OFFSET -9.412 3.9771 -0.7758
    CHANNELS 6 Xposition Yposition Zposition Zrotation Xrotation Yrotation
    JOINT RightKnee
    {
      OFFSET -0.7531 -40.938 0
      CHANNELS 6 Xposition Yposition Zposition Zrotation Xrotation Yrotation
      JOINT RightAnkle
      {
        OFFSET 0 -40.1986 0
        CHANNELS 6 Xposition Yposition Zposition Zrotation Xrotation Yrotation
        JOINT RightToe
        {
          OFFSET 0 -4.4182 9.239
          CHANNELS 6 Xposition Yposition Zposition Zrotation Xrotation Yrotation
          End Site
          {
            OFFSET 0 0 6.1981
          }
        }
      }
    }
  }
  JOINT LeftHip
  {
    OFFSET 9.4119 3.9773 -0.7758
    CHANNELS 6 Xposition Yposition Zposition Zrotation Xrotation Yrotation
    JOINT LeftKnee
    {
      OFFSET 0.7532 -40.9383 0
      CHANNELS 6 Xposition Yposition Zposition Zrotation Xrotation Yrotation
      JOINT LeftAnkle
      {
        OFFSET 0 -40.1986 0
        CHANNELS 6 Xposition Yposition Zposition Zrotation Xrotation Yrotation
        JOINT LeftToe
        {
          OFFSET 0 -4.4182 9.239
          CHANNELS 6 Xposition Yposition Zposition Zrotation Xrotation Yrotation
          End Site
          {
            OFFSET 0 0 6.1981
          }
        }
      }
    }
  }
}
MOTION
Frames:	4
Frame Time:	0.0333333
0.934493 15.3486 -1.64676 -6.64912e-015 2.99883 180 0 8.7983 -4.7612 -0.308259 -3.65127 -0.546403 -2.22045e-016 8.0291 0.4195 -0.653474 -7.29939 -1.11594 -2.22045e-016 9.9351 -2.2114 -0.653475 -7.2994 -1.11594 0 22.3885 -0.4656 1.23035e-006 -8.5121 1.45045e-006 -0.0001 12.643 3.4389 1.26126e-007 -9.12134 -8.0568e-008 2.2603 21.606 7.4023 -15.6705 1.80973 -28.9928 13.5163 -1.1332 -5.0146 25.2986 -13.0643 105.463 -0.0995 -28.05 -0.2431 1.75398 0.142413 -74.62 0.0679 -23.3996 -0.1402 14.9639 20.7316 5.10414 0.7932 -9.069 2.5189 3.97569e-015 3.18055e-015 -4.77083e-015 -0.8272 -3.3923 0.5977 7.95139e-016 0 -4.77083e-015 -0.5649 -2.3158 0.4082 1.05934e-030 9.54166e-015 -6.36111e-015 0.9159 -9.2044 0.2193 3.97569e-015 3.18055e-015 -4.77083e-015 0.0117 -4.1944 -0.0248 -0.0127985 0.00232511 8.53929e-005 0.0071 -2.3249 -0.0142 2.3059e-014 3.18055e-015 -7.95139e-015 0.6113 -8.7231 -2.0637 3.97569e-015 3.18055e-015 -4.77083e-015 -0.1927 -3.8059 -0.2383 -0.0160291 0.00299673 0.000856032 -0.1091 -2.1688 -0.1362 0 3.18055e-015 -0 -0.6151 -8.0947 -3.5641 3.97569e-015 3.18055e-015 -4.77083e-015 -0.4882 -2.341 -0.6462 -0.0125919 0.00312498 0.0028285 -0.3575 -1.7167 -0.4742 -0 -2.54444e-014 -0 -1.42 -1.8761 1.4223 3.97569e-015 3.18055e-015 -4.77083e-015 -1.1471 -3.4929 2.6334 7.95139e-016 0 -4.77083e-015 -0.823 -2.3 1.6571 1.05934e-030 9.54166e-015 -6.36111e-015 -2.2603 21.606 7.4023 -5.03252 -7.17982 -16.0531 -13.5187 -1.1334 -5.0155 -24.4824 28.3058 -105.301 0.0994 -28.0499 -0.2431 -0.204773 0.422018 74.0348 -0.0679 -23.3996 -0.1402 -45.7336 -9.23223 5.8792 -0.7932 -9.06911 2.5189 -0 -3.18055e-015 -0 0.8272 -3.3923 0.5977 -3.18055e-015 0 3.18055e-015 0.565 -2.3158 0.4082 -3.18055e-015 -6.36111e-015 -0 -0.916 -9.20441 0.2193 -0 -3.18055e-015 -0 -0.0117 -4.1944 -0.0248 0.0129653 0.00232027 -7.44403e-005 -0.0071 -2.3249 -0.0142 -1.27222e-014 -9.54166e-015 -3.18055e-015 -0.6113 -8.7231 -2.0637 -0 -3.18055e-015 -0 0.1927 -3.8059 -0.2383 0.0163662 0.00304755 -0.000871652 0.1091 -2.1688 -0.1362 -3.18055e-015 0 -0 0.6151 -8.0947 -3.564 -0 -3.18055e-015 -0 0.4882 -2.341 -0.6462 0.0146318 0.00369294 -0.00327481 0.3574 -1.7166 -0.4742 6.36111e-015 6.36111e-015 -0 1.4199 -1.8761 1.4221 -0 -3.18055e-015 -0 1.1472 -3.4929 2.6336 -3.18055e-015 0 3.18055e-015 0.8229 -2.3 1.6571 -3.18055e-015 -6.36111e-015 -0 -9.412 3.9771 -0.7758 -39.2612 -13.8069 46.2683 -0.7531 -40.938 -1.77636e-015 131.039 38.6543 -159.921 8.88178e-016 -40.1986 0 -16.9071 33.1428 64.9078 0 -4.4182 9.239 -2.15997e-006 7.20006e-006 -2.31241e-006 9.4119 3.9773 -0.7758 41.4398 -14.0067 -46.9066 0.7532 -40.9383 3.55271e-015 -129.064 39.3702 158.7 -4.44089e-016 -40.1986 0 19.4604 33.4145 -67.8495 -3.55271e-015 -4.4182 9.23901 -1.08839e-006 -3.74384e-006 -1.14811e-006 
0.934681 15.474 -1.7251 -6.64912e-015 2.99883 180 0 8.7983 -4.7612 -0.308259 -3.65127 -0.546403 0 8.0291 0.4195 -0.653474 -7.29939 -1.11594 0 9.9351 -2.2114 -0.653475 -7.2994 -1.11594 -4.44089e-016 22.3885 -0.4656 1.27161e-006 -7.30731 2.14479e-006 -0.0001 12.643 3.4389 -8.66056e-007 -9.12135 -2.84415e-007 2.2603 21.606 7.4023 -15.5438 1.69095 -29.0211 13.5163 -1.1332 -5.0146 25.2983 -13.0643 105.463 -0.0995 -28.05 -0.2431 1.89054 0.117516 -74.6188 0.0679 -23.3996 -0.1402 14.6605 21.3607 5.0871 0.7932 -9.069 2.5189 -1.59028e-015 0 1.59028e-015 -0.827199 -3.3923 0.5977 -3.18055e-015 0 1.59028e-015 -0.5649 -2.3158 0.4082 7.95139e-016 3.18055e-015 -0 0.915899 -9.2044 0.2193 -1.59028e-015 0 1.59028e-015 0.0117 -4.1944 -0.0248 -0.0128239 0.00232297 8.79242e-005 0.0071 -2.3249 -0.0142 -1.59028e-015 0 -1.59028e-015 0.6113 -8.7231 -2.0637 -1.59028e-015 0 1.59028e-015 -0.1927 -3.8059 -0.2383 -0.0160601 0.00299442 0.000860346 -0.1091 -2.1688 -0.1362 0 0 -0 -0.6151 -8.0947 -3.5641 -1.59028e-015 0 1.59028e-015 -0.4882 -2.341 -0.6462 -0.0125899 0.00312263 0.00283007 -0.3575 -1.7167 -0.4742 -2.38542e-015 -6.36111e-015 1.59028e-015 -1.42 -1.8761 1.4223 -1.59028e-015 0 1.59028e-015 -1.1471 -3.4929 2.6334 -3.18055e-015 0 1.59028e-015 -0.823 -2.3 1.6571 7.95139e-016 3.18055e-015 -0 -2.2603 21.606 7.4023 -4.57626 -7.28032 -16.2387 -13.5187 -1.1334 -5.0155 -24.7052 28.2114 -105.203 0.0994 -28.0499 -0.2431 -0.193242 0.42388 73.9883 -0.0679 -23.3996 -0.1402 -45.7326 -9.23828 5.88525 -0.7932 -9.0691 2.5189 3.18055e-015 1.52729e-006 3.18055e-015 0.8272 -3.3923 0.5977 -2.64781e-006 -3.50581e-006 8.47998e-006 0.565 -2.3158 0.4082 -1.06171e-006 2.80061e-006 1.09312e-006 -0.916 -9.2044 0.2193 3.18055e-015 1.52729e-006 3.18055e-015 -0.0117 -4.1944 -0.0248 0.0129485 0.0023158 -7.63458e-005 -0.0071 -2.3249 -0.0142 -3.18055e-015 9.54166e-015 -3.18055e-015 -0.6113 -8.7231 -2.0637 3.18055e-015 1.52729e-006 3.18055e-015 0.1927 -3.8059 -0.2383 0.0163483 0.0030451 -0.000865922 0.1091 -2.1688 -0.1362 -1.27222e-014 9.54166e-015 -1.27222e-014 0.6151 -8.0947 -3.564 3.18055e-015 1.52729e-006 3.18055e-015 0.4882 -2.341 -0.6462 0.0146308 0.00368656 -0.00327835 0.3574 -1.7166 -0.4742 9.11929e-006 2.90722e-006 1.26841e-005 1.4199 -1.8761 1.4221 3.18055e-015 1.52729e-006 3.18055e-015 1.1472 -3.4929 2.6336 -2.64781e-006 -3.50581e-006 8.47998e-006 0.8229 -2.3 1.6571 -1.06171e-006 2.80061e-006 1.09312e-006 -9.412 3.9771 -0.7758 -39.0346 -13.7501 46.3067 -0.7531 -40.938 0 130.807 38.7293 -159.784 -4.44089e-016 -40.1986 -7.10543e-015 -16.7938 33.3441 64.7592 0 -4.4182 9.239 -1.01561e-005 -7.68398e-006 4.43033e-006 9.4119 3.9773 -0.7758 41.2028 -13.9569 -46.949 0.7532 -40.9383 1.77636e-015 -128.835 39.4395 158.563 -8.88178e-016 -40.1986 0 19.3401 33.6282 -67.6962 -3.55271e-015 -4.4182 9.239 9.54166e-015 -3.80433e-006 3.18055e-015 
0.934868 15.5993 -1.80342 -6.64912e-015 2.99883 180 0 8.7983 -4.7612 -0.308259 -3.65127 -0.546403 0 8.0291 0.4195 -0.653474 -7.29939 -1.11594 0 9.9351 -2.2114 -0.653475 -7.29941 -1.11594 0 22.3885 -0.4656 7.84619e-007 -6.10022 1.35972e-006 -0.0001 12.643 3.4389 6.04105e-007 -9.12134 1.84673e-007 2.2603 21.606 7.4023 -15.4171 1.57211 -29.0492 13.5163 -1.1332 -5.0146 25.2986 -13.0643 105.463 -0.0995 -28.05 -0.2431 2.02737 0.093108 -74.6172 0.0679 -23.3996 -0.1402 14.3559 21.9898 5.07369 0.793199 -9.069 2.5189 3.97569e-015 -3.18055e-015 -1.59028e-015 -0.827199 -3.3923 0.5977 1.59028e-015 6.36111e-015 -3.18055e-015 -0.5649 -2.3158 0.4082 7.95139e-016 1.27222e-014 -6.36111e-015 0.915899 -9.2044 0.2193 3.97569e-015 -3.18055e-015 -1.59028e-015 0.0117 -4.1944 -0.0248 -0.0128274 0.00232754 8.87551e-005 0.00709999 -2.3249 -0.0142 -7.95139e-016 0 1.59028e-015 0.6113 -8.7231 -2.0637 3.97569e-015 -3.18055e-015 -1.59028e-015 -0.1927 -3.8059 -0.2383 -0.0160492 0.00299642 0.000858754 -0.1091 -2.1688 -0.1362 -1.59028e-015 -3.18055e-015 -0 -0.6151 -8.0947 -3.5641 3.97569e-015 -3.18055e-015 -1.59028e-015 -0.4882 -2.341 -0.6462 -0.0126043 0.00312873 0.0028332 -0.3575 -1.7167 -0.4742 -1.59028e-015 9.54166e-015 -1.59028e-015 -1.42 -1.8761 1.4223 3.97569e-015 -3.18055e-015 -1.59028e-015 -1.1471 -3.4929 2.6334 1.59028e-015 6.36111e-015 -3.18055e-015 -0.822999 -2.3 1.6571 7.95139e-016 1.27222e-014 -6.36111e-015 -2.2603 21.606 7.4023 -4.12026 -7.38225 -16.4235 -13.5187 -1.1334 -5.0155 -24.9275 28.1166 -105.105 0.0994 -28.0499 -0.2431 -0.182172 0.425564 73.9416 -0.0679 -23.3996 -0.1402 -45.7316 -9.24449 5.89142 -0.7932 -9.0691 2.5189 3.18055e-015 -6.36111e-015 3.18055e-015 0.8272 -3.3923 0.5977 -1.76556e-031 3.18055e-015 3.18055e-015 0.565 -2.3158 0.4082 1.76556e-031 3.18055e-015 -3.18055e-015 -0.916 -9.2044 0.2193 3.18055e-015 -6.36111e-015 3.18055e-015 -0.0117 -4.1944 -0.0248 0.0129834 0.00232424 -7.69997e-005 -0.0071 -2.3249 -0.0142 -6.36111e-015 -3.18055e-015 3.18055e-015 -0.6113 -8.7231 -2.0637 3.18055e-015 -6.36111e-015 3.18055e-015 0.1927 -3.8059 -0.2383 0.0163181 0.00303147 -0.000858315 0.1091 -2.1688 -0.1362 -9.6262e-006 1.75341e-007 -1.31872e-005 0.6151 -8.0947 -3.564 3.18055e-015 -6.36111e-015 3.18055e-015 0.4882 -2.341 -0.6462 0.0145548 0.00367352 -0.0032501 0.3574 -1.7166 -0.4742 6.93643e-006 4.13719e-007 -8.1176e-006 1.4199 -1.8761 1.4221 3.18055e-015 -6.36111e-015 3.18055e-015 1.1472 -3.4929 2.6336 -1.76556e-031 3.18055e-015 3.18055e-015 0.8229 -2.3 1.6571 1.76556e-031 3.18055e-015 -3.18055e-015 -9.412 3.9771 -0.7758 -38.8081 -13.6934 46.3449 -0.7531 -40.938 1.77636e-015 130.574 38.8039 -159.646 1.33227e-015 -40.1986 0 -16.6797 33.5452 64.6096 0 -4.4182 9.239 -7.96837e-006 7.39369e-007 1.14857e-006 9.4119 3.9773 -0.7758 40.9658 -13.907 -46.9912 0.7532 -40.9383 3.55271e-015 -128.605 39.5084 158.426 4.44089e-016 -40.1986 7.10543e-015 19.2191 33.8418 -67.5421 0 -4.4182 9.239 1.58047e-006 1.16807e-007 -2.48219e-006 
0.935055 15.7247 -1.88174 -6.64912e-015 2.99883 180 0 8.7983 -4.7612 -0.308259 -3.65127 -0.546403 0 8.0291 0.4195 -0.653474 -7.29939 -1.11594 0 9.9351 -2.2114 -0.653475 -7.2994 -1.11594 0 22.3885 -0.4656 1.18459e-006 -4.89112 1.65856e-006 -0.0001 12.643 3.4389 -1.03141e-006 -9.12135 -9.61238e-007 2.2603 21.606 7.4023 -15.2905 1.45319 -29.077 13.5163 -1.1332 -5.0146 25.2983 -13.0643 105.463 -0.0995 -28.05 -0.2431 2.16387 0.0681952 -74.6151 0.0679 -23.3996 -0.1402 14.0501 22.6189 5.0638 0.7932 -9.069 2.5189 0 0 -0 -0.8272 -3.3923 0.5977 -7.95139e-016 -6.36111e-015 3.18055e-015 -0.5649 -2.3158 0.4082 -7.95139e-016 -3.18055e-015 3.18055e-015 0.9159 -9.2044 0.2193 0 0 -0 0.0117 -4.1944 -0.0248 -0.0128209 0.00232012 8.95969e-005 0.0071 -2.3249 -0.0142 -7.95139e-016 0 -0 0.6113 -8.7231 -2.0637 0 0 -0 -0.1927 -3.8059 -0.2383 -0.0160407 0.00298697 0.000857616 -0.1091 -2.1688 -0.1362 5.29669e-031 9.54166e-015 -3.18055e-015 -0.6151 -8.0947 -3.5641 0 0 -0 -0.4882 -2.341 -0.6462 -0.0126005 0.00312577 0.0028352 -0.3575 -1.7167 -0.4742 7.94568e-007 1.537e-006 -2.90802e-007 -1.42 -1.8761 1.4223 0 0 -0 -1.1471 -3.4929 2.6334 -7.95139e-016 -6.36111e-015 3.18055e-015 -0.823 -2.3 1.6571 -7.95139e-016 -3.18055e-015 3.18055e-015 -2.2603 21.606 7.4023 -3.66454 -7.48565 -16.6075 -13.5187 -1.1334 -5.0155 -25.1495 28.0216 -105.007 0.0994 -28.0499 -0.2431 -0.17164 0.427199 73.8946 -0.0679 -23.3996 -0.1402 -45.7305 -9.25077 5.89764 -0.7932 -9.0691 2.5189 -5.85495e-006 -5.23324e-006 2.41236e-007 0.8272 -3.3923 0.5977 7.97118e-006 2.48976e-006 -2.42402e-006 0.565 -2.3158 0.4082 -2.11623e-006 2.74348e-006 2.18278e-006 -0.916 -9.2044 0.2193 -5.85495e-006 -5.23324e-006 2.41236e-007 -0.0117 -4.1944 -0.0248 0.0129615 0.00232136 -8.69602e-005 -0.0071 -2.3249 -0.0142 1.18946e-006 1.81831e-006 8.38232e-006 -0.6113 -8.7231 -2.0637 -5.85495e-006 -5.23324e-006 2.41236e-007 0.1927 -3.8059 -0.2383 0.0163917 0.00304831 -0.000875014 0.1091 -2.1688 -0.1362 -6.84741e-006 -5.59992e-006 6.06908e-006 0.6151 -8.0947 -3.564 -5.85495e-006 -5.23324e-006 2.41236e-007 0.4882 -2.341 -0.6462 0.0146041 0.00368348 -0.00327039 0.3574 -1.7166 -0.4742 -1.05799e-006 1.46751e-006 1.09128e-006 1.4199 -1.8761 1.4221 -5.85495e-006 -5.23324e-006 2.41236e-007 1.1472 -3.4929 2.6336 7.97118e-006 2.48976e-006 -2.42402e-006 0.8229 -2.3 1.6571 -2.11623e-006 2.74348e-006 2.18278e-006 -9.412 3.9771 -0.7758 -38.5817 -13.6365 46.3827 -0.7531 -40.938 1.77636e-015 130.341 38.8781 -159.507 -4.44089e-016 -40.1986 0 -16.5649 33.746 64.4594 3.55271e-015 -4.4182 9.239 -7.9678e-006 1.06605e-006 1.15395e-006 9.4119 3.9773 -0.7758 40.7289 -13.857 -47.0331 0.7532 -40.9383 -1.77636e-015 -128.375 39.5767 158.289 4.44089e-016 -40.1986 -7.10543e-015 19.097 34.0551 -67.387 3.55271e-015 -4.4182 9.239 -6.46592e-006 -2.60961e-006 -4.06235e-006 
